<mxfile host="app.diagrams.net" agent="Mozilla/5.0 (Windows NT 10.0; Win64; x64) AppleWebKit/537.36 (KHTML, like Gecko) Chrome/132.0.0.0 YaBrowser/25.2.0.0 Safari/537.36" version="26.0.15">
  <diagram name="Страница — 1" id="-iWKfeThpFbk1sWd4guv">
    <mxGraphModel dx="792" dy="447" grid="1" gridSize="10" guides="1" tooltips="1" connect="1" arrows="1" fold="1" page="1" pageScale="1" pageWidth="827" pageHeight="1169" math="0" shadow="0">
      <root>
        <mxCell id="0" />
        <mxCell id="1" parent="0" />
        <mxCell id="WCjUx5ZXHdJRx-BqYPfz-1" value="Mistral-large" style="rounded=0;whiteSpace=wrap;html=1;fillColor=#dae8fc;strokeColor=#6c8ebf;" vertex="1" parent="1">
          <mxGeometry x="140" y="320" width="80" height="40" as="geometry" />
        </mxCell>
        <mxCell id="WCjUx5ZXHdJRx-BqYPfz-2" value="Coder-agent" style="rounded=1;whiteSpace=wrap;html=1;fillColor=#f8cecc;strokeColor=#b85450;" vertex="1" parent="1">
          <mxGeometry x="90" y="390" width="80" height="40" as="geometry" />
        </mxCell>
        <mxCell id="WCjUx5ZXHdJRx-BqYPfz-3" value="Vision-agent" style="rounded=1;whiteSpace=wrap;html=1;fillColor=#d5e8d4;strokeColor=#82b366;" vertex="1" parent="1">
          <mxGeometry x="190" y="390" width="80" height="40" as="geometry" />
        </mxCell>
        <mxCell id="WCjUx5ZXHdJRx-BqYPfz-4" value="Report-agent" style="rounded=1;whiteSpace=wrap;html=1;" vertex="1" parent="1">
          <mxGeometry x="140" y="440" width="80" height="40" as="geometry" />
        </mxCell>
        <mxCell id="WCjUx5ZXHdJRx-BqYPfz-5" value="" style="endArrow=classic;html=1;rounded=0;exitX=0.25;exitY=1;exitDx=0;exitDy=0;startArrow=classic;startFill=1;" edge="1" parent="1" source="WCjUx5ZXHdJRx-BqYPfz-1" target="WCjUx5ZXHdJRx-BqYPfz-2">
          <mxGeometry width="50" height="50" relative="1" as="geometry">
            <mxPoint x="290" y="420" as="sourcePoint" />
            <mxPoint x="340" y="370" as="targetPoint" />
          </mxGeometry>
        </mxCell>
        <mxCell id="WCjUx5ZXHdJRx-BqYPfz-6" value="" style="endArrow=classic;html=1;rounded=0;exitX=0.75;exitY=1;exitDx=0;exitDy=0;startArrow=classic;startFill=1;" edge="1" parent="1" source="WCjUx5ZXHdJRx-BqYPfz-1" target="WCjUx5ZXHdJRx-BqYPfz-3">
          <mxGeometry width="50" height="50" relative="1" as="geometry">
            <mxPoint x="165" y="370" as="sourcePoint" />
            <mxPoint x="144" y="400" as="targetPoint" />
          </mxGeometry>
        </mxCell>
        <mxCell id="WCjUx5ZXHdJRx-BqYPfz-7" value="" style="endArrow=classic;html=1;rounded=0;exitX=0.5;exitY=1;exitDx=0;exitDy=0;entryX=0.5;entryY=0;entryDx=0;entryDy=0;" edge="1" parent="1" source="WCjUx5ZXHdJRx-BqYPfz-1" target="WCjUx5ZXHdJRx-BqYPfz-4">
          <mxGeometry width="50" height="50" relative="1" as="geometry">
            <mxPoint x="290" y="420" as="sourcePoint" />
            <mxPoint x="340" y="370" as="targetPoint" />
          </mxGeometry>
        </mxCell>
        <mxCell id="WCjUx5ZXHdJRx-BqYPfz-8" value="" style="endArrow=classic;html=1;rounded=0;exitX=0.5;exitY=1;exitDx=0;exitDy=0;" edge="1" parent="1" source="WCjUx5ZXHdJRx-BqYPfz-4" target="WCjUx5ZXHdJRx-BqYPfz-9">
          <mxGeometry width="50" height="50" relative="1" as="geometry">
            <mxPoint x="290" y="420" as="sourcePoint" />
            <mxPoint x="180" y="500" as="targetPoint" />
          </mxGeometry>
        </mxCell>
        <mxCell id="WCjUx5ZXHdJRx-BqYPfz-9" value="END" style="text;html=1;align=center;verticalAlign=middle;whiteSpace=wrap;rounded=0;" vertex="1" parent="1">
          <mxGeometry x="150" y="500" width="60" height="30" as="geometry" />
        </mxCell>
        <mxCell id="WCjUx5ZXHdJRx-BqYPfz-10" value="" style="endArrow=none;html=1;rounded=0;" edge="1" parent="1">
          <mxGeometry width="50" height="50" relative="1" as="geometry">
            <mxPoint x="280" y="550" as="sourcePoint" />
            <mxPoint x="280" y="260" as="targetPoint" />
          </mxGeometry>
        </mxCell>
        <mxCell id="WCjUx5ZXHdJRx-BqYPfz-12" value="" style="endArrow=classic;html=1;rounded=0;exitX=0.5;exitY=1;exitDx=0;exitDy=0;entryX=0.5;entryY=0;entryDx=0;entryDy=0;" edge="1" parent="1" source="WCjUx5ZXHdJRx-BqYPfz-18" target="WCjUx5ZXHdJRx-BqYPfz-13">
          <mxGeometry width="50" height="50" relative="1" as="geometry">
            <mxPoint x="335" y="320" as="sourcePoint" />
            <mxPoint x="334.76" y="360" as="targetPoint" />
          </mxGeometry>
        </mxCell>
        <mxCell id="WCjUx5ZXHdJRx-BqYPfz-13" value="Codestral&lt;div&gt;generation&lt;/div&gt;" style="rounded=0;whiteSpace=wrap;html=1;fillColor=#f8cecc;strokeColor=#b85450;" vertex="1" parent="1">
          <mxGeometry x="300" y="320" width="70" height="40" as="geometry" />
        </mxCell>
        <mxCell id="WCjUx5ZXHdJRx-BqYPfz-23" value="" style="edgeStyle=orthogonalEdgeStyle;rounded=0;orthogonalLoop=1;jettySize=auto;html=1;entryX=0.5;entryY=0;entryDx=0;entryDy=0;" edge="1" parent="1" source="WCjUx5ZXHdJRx-BqYPfz-14" target="WCjUx5ZXHdJRx-BqYPfz-20">
          <mxGeometry relative="1" as="geometry" />
        </mxCell>
        <mxCell id="WCjUx5ZXHdJRx-BqYPfz-14" value="Code checking" style="rounded=1;whiteSpace=wrap;html=1;" vertex="1" parent="1">
          <mxGeometry x="300" y="390" width="70" height="40" as="geometry" />
        </mxCell>
        <mxCell id="WCjUx5ZXHdJRx-BqYPfz-26" value="" style="edgeStyle=orthogonalEdgeStyle;rounded=0;orthogonalLoop=1;jettySize=auto;html=1;entryX=1;entryY=0.5;entryDx=0;entryDy=0;exitX=0;exitY=0.5;exitDx=0;exitDy=0;" edge="1" parent="1" source="WCjUx5ZXHdJRx-BqYPfz-15" target="WCjUx5ZXHdJRx-BqYPfz-13">
          <mxGeometry relative="1" as="geometry">
            <Array as="points">
              <mxPoint x="380" y="340" />
              <mxPoint x="380" y="340" />
            </Array>
          </mxGeometry>
        </mxCell>
        <mxCell id="WCjUx5ZXHdJRx-BqYPfz-15" value="Codestral&lt;div&gt;reflexing&lt;/div&gt;" style="rounded=0;whiteSpace=wrap;html=1;fillColor=#f8cecc;strokeColor=#b85450;" vertex="1" parent="1">
          <mxGeometry x="390" y="320" width="70" height="40" as="geometry" />
        </mxCell>
        <mxCell id="WCjUx5ZXHdJRx-BqYPfz-16" value="" style="endArrow=classic;html=1;rounded=0;entryX=0.5;entryY=0;entryDx=0;entryDy=0;exitX=0.5;exitY=1;exitDx=0;exitDy=0;" edge="1" parent="1" source="WCjUx5ZXHdJRx-BqYPfz-17" target="WCjUx5ZXHdJRx-BqYPfz-1">
          <mxGeometry width="50" height="50" relative="1" as="geometry">
            <mxPoint x="190.24" y="270" as="sourcePoint" />
            <mxPoint x="190" y="310" as="targetPoint" />
          </mxGeometry>
        </mxCell>
        <mxCell id="WCjUx5ZXHdJRx-BqYPfz-17" value="Task" style="text;html=1;align=center;verticalAlign=middle;whiteSpace=wrap;rounded=0;" vertex="1" parent="1">
          <mxGeometry x="150" y="270" width="60" height="30" as="geometry" />
        </mxCell>
        <mxCell id="WCjUx5ZXHdJRx-BqYPfz-18" value="Task" style="text;html=1;align=center;verticalAlign=middle;whiteSpace=wrap;rounded=0;" vertex="1" parent="1">
          <mxGeometry x="305" y="270" width="60" height="30" as="geometry" />
        </mxCell>
        <mxCell id="WCjUx5ZXHdJRx-BqYPfz-19" value="" style="endArrow=classic;html=1;rounded=0;exitX=0.5;exitY=1;exitDx=0;exitDy=0;entryX=0.5;entryY=0;entryDx=0;entryDy=0;" edge="1" parent="1" source="WCjUx5ZXHdJRx-BqYPfz-13" target="WCjUx5ZXHdJRx-BqYPfz-14">
          <mxGeometry width="50" height="50" relative="1" as="geometry">
            <mxPoint x="330" y="420" as="sourcePoint" />
            <mxPoint x="380" y="370" as="targetPoint" />
          </mxGeometry>
        </mxCell>
        <mxCell id="WCjUx5ZXHdJRx-BqYPfz-24" value="" style="edgeStyle=orthogonalEdgeStyle;rounded=0;orthogonalLoop=1;jettySize=auto;html=1;" edge="1" parent="1" source="WCjUx5ZXHdJRx-BqYPfz-20" target="WCjUx5ZXHdJRx-BqYPfz-21">
          <mxGeometry relative="1" as="geometry" />
        </mxCell>
        <mxCell id="WCjUx5ZXHdJRx-BqYPfz-27" value="" style="rounded=0;orthogonalLoop=1;jettySize=auto;html=1;entryX=0.25;entryY=0;entryDx=0;entryDy=0;exitX=0.5;exitY=1;exitDx=0;exitDy=0;" edge="1" parent="1" source="WCjUx5ZXHdJRx-BqYPfz-20" target="WCjUx5ZXHdJRx-BqYPfz-22">
          <mxGeometry relative="1" as="geometry" />
        </mxCell>
        <mxCell id="WCjUx5ZXHdJRx-BqYPfz-20" value="Is good" style="rhombus;whiteSpace=wrap;html=1;" vertex="1" parent="1">
          <mxGeometry x="300" y="460" width="70" height="40" as="geometry" />
        </mxCell>
        <mxCell id="WCjUx5ZXHdJRx-BqYPfz-25" value="" style="edgeStyle=orthogonalEdgeStyle;rounded=0;orthogonalLoop=1;jettySize=auto;html=1;" edge="1" parent="1" source="WCjUx5ZXHdJRx-BqYPfz-21" target="WCjUx5ZXHdJRx-BqYPfz-15">
          <mxGeometry relative="1" as="geometry" />
        </mxCell>
        <mxCell id="WCjUx5ZXHdJRx-BqYPfz-28" value="" style="rounded=0;orthogonalLoop=1;jettySize=auto;html=1;entryX=0.75;entryY=0;entryDx=0;entryDy=0;exitX=0.5;exitY=1;exitDx=0;exitDy=0;" edge="1" parent="1" source="WCjUx5ZXHdJRx-BqYPfz-21" target="WCjUx5ZXHdJRx-BqYPfz-22">
          <mxGeometry relative="1" as="geometry" />
        </mxCell>
        <mxCell id="WCjUx5ZXHdJRx-BqYPfz-21" value="Can regen?" style="rhombus;whiteSpace=wrap;html=1;" vertex="1" parent="1">
          <mxGeometry x="385" y="457.5" width="80" height="45" as="geometry" />
        </mxCell>
        <mxCell id="WCjUx5ZXHdJRx-BqYPfz-22" value="Printed output/error" style="text;html=1;align=center;verticalAlign=middle;whiteSpace=wrap;rounded=0;" vertex="1" parent="1">
          <mxGeometry x="330" y="520" width="110" height="30" as="geometry" />
        </mxCell>
        <mxCell id="WCjUx5ZXHdJRx-BqYPfz-29" value="yes" style="text;html=1;align=center;verticalAlign=middle;whiteSpace=wrap;rounded=0;" vertex="1" parent="1">
          <mxGeometry x="316" y="496" width="30" height="30" as="geometry" />
        </mxCell>
        <mxCell id="WCjUx5ZXHdJRx-BqYPfz-30" value="yes" style="text;html=1;align=center;verticalAlign=middle;whiteSpace=wrap;rounded=0;" vertex="1" parent="1">
          <mxGeometry x="424" y="430" width="30" height="33" as="geometry" />
        </mxCell>
        <mxCell id="WCjUx5ZXHdJRx-BqYPfz-31" value="no" style="text;html=1;align=center;verticalAlign=middle;whiteSpace=wrap;rounded=0;" vertex="1" parent="1">
          <mxGeometry x="416" y="497" width="30" height="30" as="geometry" />
        </mxCell>
        <mxCell id="WCjUx5ZXHdJRx-BqYPfz-32" value="no" style="text;html=1;align=center;verticalAlign=middle;whiteSpace=wrap;rounded=0;" vertex="1" parent="1">
          <mxGeometry x="359" y="454" width="30" height="30" as="geometry" />
        </mxCell>
        <mxCell id="WCjUx5ZXHdJRx-BqYPfz-33" value="" style="endArrow=none;html=1;rounded=0;" edge="1" parent="1">
          <mxGeometry width="50" height="50" relative="1" as="geometry">
            <mxPoint x="480" y="550" as="sourcePoint" />
            <mxPoint x="480" y="260" as="targetPoint" />
          </mxGeometry>
        </mxCell>
        <mxCell id="WCjUx5ZXHdJRx-BqYPfz-34" value="" style="endArrow=classic;html=1;rounded=0;exitX=0.5;exitY=1;exitDx=0;exitDy=0;entryX=0.5;entryY=0;entryDx=0;entryDy=0;" edge="1" parent="1" source="WCjUx5ZXHdJRx-BqYPfz-40" target="WCjUx5ZXHdJRx-BqYPfz-53">
          <mxGeometry width="50" height="50" relative="1" as="geometry">
            <mxPoint x="559.98" y="320" as="sourcePoint" />
            <mxPoint x="559.98" y="320" as="targetPoint" />
          </mxGeometry>
        </mxCell>
        <mxCell id="WCjUx5ZXHdJRx-BqYPfz-40" value="Task" style="text;html=1;align=center;verticalAlign=middle;whiteSpace=wrap;rounded=0;" vertex="1" parent="1">
          <mxGeometry x="529.98" y="270" width="60" height="30" as="geometry" />
        </mxCell>
        <mxCell id="WCjUx5ZXHdJRx-BqYPfz-43" value="" style="rounded=0;orthogonalLoop=1;jettySize=auto;html=1;entryX=1;entryY=0.5;entryDx=0;entryDy=0;exitX=1;exitY=0.5;exitDx=0;exitDy=0;edgeStyle=orthogonalEdgeStyle;" edge="1" parent="1" source="WCjUx5ZXHdJRx-BqYPfz-40" target="WCjUx5ZXHdJRx-BqYPfz-55">
          <mxGeometry relative="1" as="geometry">
            <mxPoint x="582.48" y="520" as="targetPoint" />
          </mxGeometry>
        </mxCell>
        <mxCell id="WCjUx5ZXHdJRx-BqYPfz-58" value="" style="edgeStyle=orthogonalEdgeStyle;rounded=0;orthogonalLoop=1;jettySize=auto;html=1;entryX=0;entryY=0.5;entryDx=0;entryDy=0;exitX=0;exitY=0.5;exitDx=0;exitDy=0;" edge="1" parent="1" source="WCjUx5ZXHdJRx-BqYPfz-44" target="WCjUx5ZXHdJRx-BqYPfz-56">
          <mxGeometry relative="1" as="geometry">
            <Array as="points">
              <mxPoint x="490" y="410" />
              <mxPoint x="490" y="535" />
            </Array>
          </mxGeometry>
        </mxCell>
        <mxCell id="WCjUx5ZXHdJRx-BqYPfz-60" value="" style="edgeStyle=orthogonalEdgeStyle;rounded=0;orthogonalLoop=1;jettySize=auto;html=1;entryX=0.5;entryY=0;entryDx=0;entryDy=0;" edge="1" parent="1" source="WCjUx5ZXHdJRx-BqYPfz-44" target="WCjUx5ZXHdJRx-BqYPfz-55">
          <mxGeometry relative="1" as="geometry" />
        </mxCell>
        <mxCell id="WCjUx5ZXHdJRx-BqYPfz-44" value="Is good" style="rhombus;whiteSpace=wrap;html=1;" vertex="1" parent="1">
          <mxGeometry x="524.98" y="390" width="70" height="40" as="geometry" />
        </mxCell>
        <mxCell id="WCjUx5ZXHdJRx-BqYPfz-59" value="" style="edgeStyle=orthogonalEdgeStyle;rounded=0;orthogonalLoop=1;jettySize=auto;html=1;" edge="1" parent="1" source="WCjUx5ZXHdJRx-BqYPfz-53">
          <mxGeometry relative="1" as="geometry">
            <mxPoint x="560" y="390" as="targetPoint" />
          </mxGeometry>
        </mxCell>
        <mxCell id="WCjUx5ZXHdJRx-BqYPfz-53" value="Coder-agent" style="rounded=1;whiteSpace=wrap;html=1;fillColor=#f8cecc;strokeColor=#b85450;" vertex="1" parent="1">
          <mxGeometry x="519.98" y="330" width="80" height="40" as="geometry" />
        </mxCell>
        <mxCell id="WCjUx5ZXHdJRx-BqYPfz-57" value="" style="edgeStyle=orthogonalEdgeStyle;rounded=0;orthogonalLoop=1;jettySize=auto;html=1;" edge="1" parent="1" source="WCjUx5ZXHdJRx-BqYPfz-55" target="WCjUx5ZXHdJRx-BqYPfz-56">
          <mxGeometry relative="1" as="geometry" />
        </mxCell>
        <mxCell id="WCjUx5ZXHdJRx-BqYPfz-55" value="Pixtral-large" style="rounded=0;whiteSpace=wrap;html=1;fillColor=#d5e8d4;strokeColor=#82b366;" vertex="1" parent="1">
          <mxGeometry x="519.98" y="453" width="80" height="40" as="geometry" />
        </mxCell>
        <mxCell id="WCjUx5ZXHdJRx-BqYPfz-56" value="Printed output/error" style="text;html=1;align=center;verticalAlign=middle;whiteSpace=wrap;rounded=0;" vertex="1" parent="1">
          <mxGeometry x="504.98" y="520" width="110" height="30" as="geometry" />
        </mxCell>
        <mxCell id="WCjUx5ZXHdJRx-BqYPfz-61" value="no" style="text;html=1;align=center;verticalAlign=middle;whiteSpace=wrap;rounded=0;" vertex="1" parent="1">
          <mxGeometry x="494" y="383" width="30" height="30" as="geometry" />
        </mxCell>
        <mxCell id="WCjUx5ZXHdJRx-BqYPfz-62" value="yes" style="text;html=1;align=center;verticalAlign=middle;whiteSpace=wrap;rounded=0;" vertex="1" parent="1">
          <mxGeometry x="531" y="421" width="30" height="33" as="geometry" />
        </mxCell>
      </root>
    </mxGraphModel>
  </diagram>
</mxfile>
